<svg width="98" height="20" viewBox="0 0 98 20" fill="none" xmlns="http://www.w3.org/2000/svg">
<path d="M5.52 12.36L5.46 10.78C5.46 8.27333 5.86 5.90667 6.66 3.68C6.08667 3.61333 5.74 3.58 5.62 3.58C5.08667 3.58 4.64667 3.68667 4.3 3.9C3.96667 4.1 3.62667 4.34 3.28 4.62C2.77333 5.04667 2.24667 5.26 1.7 5.26C1.47333 5.26 1.3 5.21333 1.18 5.12C1.06 5.01333 0.986667 4.90667 0.96 4.8C0.933333 4.69333 0.913333 4.53333 0.9 4.32C0.886667 4.10667 0.866667 3.94 0.84 3.82C0.813333 3.7 0.8 3.58 0.8 3.46C0.8 3.34 0.9 3.19333 1.1 3.02C2.24667 2.00667 3.96 1.5 6.24 1.5C6.68 1.5 7.12 1.52 7.56 1.56L7.72 1.2C7.78667 1.29333 7.87333 1.42 7.98 1.58H8.36C9.61333 1.58 10.9867 1.32667 12.48 0.819999C12.5867 0.793333 12.66 0.779999 12.7 0.779999C12.9133 0.779999 13.02 0.893333 13.02 1.12C13.02 1.34667 12.9 1.58 12.66 1.82C11.4733 3.12667 9.89333 3.76667 7.92 3.74C7.58667 5.03333 7.36 6.61333 7.24 8.48C7.12 10.3467 7.04667 11.4067 7.02 11.66C6.99333 11.9133 6.98 12.1333 6.98 12.32C6.98 12.5067 7.04 12.8733 7.16 13.42C7.28 13.9667 7.34 14.28 7.34 14.36C7.34 14.7467 7.14 14.94 6.74 14.94C6.12667 14.94 5.48667 14.26 4.82 12.9C4.68667 12.66 4.62 12.4333 4.62 12.22C4.62 11.9933 4.67333 11.88 4.78 11.88C4.88667 11.88 5.01333 11.9867 5.16 12.2C5.32 12.4133 5.42 12.52 5.46 12.52C5.5 12.52 5.52 12.4667 5.52 12.36ZM16.4172 12.2C16.4172 13.2533 16.2239 14.06 15.8372 14.62C15.5439 14.9933 15.2905 15.18 15.0772 15.18C14.8639 15.18 14.6505 15.0733 14.4372 14.86C13.6905 13.9933 13.3172 12.9533 13.3172 11.74C13.3172 11.34 13.3639 10.9267 13.4572 10.5C13.6172 9.76667 13.6972 9.29333 13.6972 9.08C13.6972 8.86667 13.6839 8.76 13.6572 8.76C13.5772 8.76 13.0505 10.5933 12.0772 14.26C11.9572 14.6333 11.8305 14.82 11.6972 14.82C11.3372 14.82 10.9105 14.2 10.4172 12.96C10.1505 12.3733 10.0172 11.6667 10.0172 10.84C10.0172 9.90667 10.0705 9.12 10.1772 8.48C10.2972 7.84 10.3705 7.44667 10.3972 7.3C10.4239 7.14 10.4705 6.89333 10.5372 6.56C10.6172 6.21333 10.6705 5.98667 10.6972 5.88C10.8572 5.21333 10.9639 4.74 11.0172 4.46C10.6839 4.46 10.5172 4.36 10.5172 4.16C10.5172 4.06667 10.5572 3.96667 10.6372 3.86C11.3705 2.7 11.8905 1.67333 12.1972 0.779999C12.2505 0.553333 12.3572 0.439999 12.5172 0.439999C12.7305 0.439999 12.8905 0.646666 12.9972 1.06C13.1039 1.47333 13.1572 1.83333 13.1572 2.14C13.1572 2.91333 12.9039 3.53333 12.3972 4C11.7972 7.72 11.4972 9.67333 11.4972 9.86C11.4972 10.0467 11.5239 10.14 11.5772 10.14C11.6305 10.14 11.7239 10.02 11.8572 9.78C12.0039 9.52667 12.2305 9.05333 12.5372 8.36C12.8439 7.65333 13.0972 7.13333 13.2972 6.8C13.5905 6.30667 13.9639 6.06 14.4172 6.06C15.1372 6.06 15.4972 6.73333 15.4972 8.08C15.4972 9.17333 15.2439 10.5533 14.7372 12.22C14.7239 12.2733 14.7172 12.3267 14.7172 12.38C14.7172 12.5267 14.7839 12.6 14.9172 12.6C15.0639 12.6 15.3105 12.4067 15.6572 12.02C16.0172 11.6333 16.2305 11.44 16.2972 11.44C16.3772 11.44 16.4172 11.6933 16.4172 12.2ZM20.6508 1.24C20.6508 1.68 20.4641 2.29333 20.0908 3.08C19.7174 3.85333 19.3641 4.41333 19.0308 4.76C18.9774 4.84 18.8974 4.88 18.7908 4.88C18.4574 4.88 18.2908 4.61333 18.2908 4.08C18.2908 3.54667 18.5241 2.8 18.9908 1.84C19.0841 1.64 19.1441 1.43333 19.1708 1.22C19.1974 1.00667 19.2108 0.886666 19.2108 0.86C19.2241 0.819999 19.2308 0.793333 19.2308 0.779999C19.2441 0.753332 19.2508 0.726666 19.2508 0.699999C19.2641 0.659999 19.2708 0.633332 19.2708 0.619999C19.2841 0.593333 19.2974 0.573333 19.3108 0.559999C19.3241 0.533332 19.3374 0.513333 19.3508 0.5C19.3908 0.473332 19.4974 0.459999 19.6708 0.459999C19.8441 0.459999 20.0508 0.533332 20.2908 0.68C20.5308 0.826666 20.6508 1.01333 20.6508 1.24ZM20.8508 10.12C20.9974 9.89333 21.0974 9.78 21.1508 9.78C21.2174 9.78 21.2641 9.94667 21.2908 10.28C21.3308 10.6133 21.3508 11.06 21.3508 11.62C21.3508 12.1667 21.2174 12.76 20.9508 13.4C20.6974 14.0267 20.3241 14.5333 19.8308 14.92C19.5508 15.1333 19.2908 15.24 19.0508 15.24C18.8241 15.24 18.6308 15.1867 18.4708 15.08C18.3241 14.9867 18.1908 14.8267 18.0708 14.6C17.8708 14.28 17.6708 13.8667 17.4708 13.36C17.2841 12.8533 17.1908 12.3067 17.1908 11.72C17.1908 11.1333 17.2374 10.54 17.3308 9.94C17.4241 9.34 17.4708 8.94 17.4708 8.74C17.4708 8.52667 17.3641 8.26 17.1508 7.94C16.9374 7.60667 16.8308 7.40667 16.8308 7.34C16.8308 7.27333 16.8508 7.20667 16.8908 7.14C16.9441 7.06 17.0041 6.98667 17.0708 6.92C17.1508 6.84 17.2241 6.77333 17.2908 6.72C17.3708 6.66667 17.4574 6.6 17.5508 6.52C17.8574 6.26667 18.1374 6.14 18.3908 6.14C18.6441 6.14 18.8641 6.22667 19.0508 6.4C19.2508 6.57333 19.3441 6.87333 19.3308 7.3C19.3308 7.72667 19.2308 8.53333 19.0308 9.72C18.7774 11.24 18.6508 12.1133 18.6508 12.34C18.6508 12.5667 18.7108 12.68 18.8308 12.68C19.0974 12.68 19.7708 11.8267 20.8508 10.12ZM25.8355 6C26.1821 6 26.5955 6.14 27.0755 6.42C27.5555 6.68667 27.7955 7.00667 27.7955 7.38C27.7955 7.74 27.6488 8.06667 27.3555 8.36C27.0755 8.65333 26.7555 8.8 26.3955 8.8C25.8488 8.8 25.4688 8.54667 25.2555 8.04C25.2288 7.96 25.1821 7.92 25.1155 7.92C25.0621 7.92 24.8421 8 24.4555 8.16C24.0821 8.32 23.8288 8.43333 23.6955 8.5C23.5621 8.56667 23.4955 8.63333 23.4955 8.7C23.4955 8.75333 23.5888 8.82667 23.7755 8.92C26.1488 9.56 27.3355 10.54 27.3355 11.86C27.3355 12.3267 27.1488 12.8133 26.7755 13.32C26.4155 13.8133 25.9021 14.22 25.2355 14.54C24.5688 14.86 23.9288 15.02 23.3155 15.02C22.7021 15.02 22.2688 14.8533 22.0155 14.52C21.7755 14.1867 21.6555 13.7067 21.6555 13.08C21.6555 12.4533 21.8755 11.9867 22.3155 11.68C22.9021 11.2933 23.3821 11.1 23.7555 11.1C23.8488 11.1 23.8955 11.1267 23.8955 11.18C23.8955 11.22 23.7888 11.3 23.5755 11.42C23.3755 11.54 23.1555 11.7133 22.9155 11.94C22.6888 12.1667 22.5755 12.3533 22.5755 12.5C22.5755 12.6333 22.7355 12.7 23.0555 12.7C23.9088 12.7 24.7488 12.46 25.5755 11.98C25.7621 11.8867 25.8555 11.78 25.8555 11.66C25.8555 11.5267 25.7155 11.3933 25.4355 11.26C25.1555 11.1267 24.6821 10.9333 24.0155 10.68C23.3621 10.4267 22.8421 10.2133 22.4555 10.04C22.0821 9.85333 21.8955 9.55333 21.8955 9.14C21.8955 9.02 21.9221 8.85333 21.9755 8.64C22.0421 8.41333 22.0821 8.26 22.0955 8.18C22.1621 7.71333 22.3688 7.39333 22.7155 7.22C23.0755 7.04667 23.8421 6.68667 25.0155 6.14C25.2155 6.04667 25.4888 6 25.8355 6ZM35.9438 1.24C35.9438 1.68 35.7571 2.29333 35.3838 3.08C35.0104 3.85333 34.6571 4.41333 34.3238 4.76C34.2704 4.84 34.1904 4.88 34.0838 4.88C33.7504 4.88 33.5838 4.61333 33.5838 4.08C33.5838 3.54667 33.8171 2.8 34.2838 1.84C34.3771 1.64 34.4371 1.43333 34.4638 1.22C34.4904 1.00667 34.5038 0.886666 34.5038 0.86C34.5171 0.819999 34.5238 0.793333 34.5238 0.779999C34.5371 0.753332 34.5438 0.726666 34.5438 0.699999C34.5571 0.659999 34.5638 0.633332 34.5638 0.619999C34.5771 0.593333 34.5904 0.573333 34.6038 0.559999C34.6171 0.533332 34.6304 0.513333 34.6438 0.5C34.6838 0.473332 34.7904 0.459999 34.9638 0.459999C35.1371 0.459999 35.3438 0.533332 35.5838 0.68C35.8238 0.826666 35.9438 1.01333 35.9438 1.24ZM36.1438 10.12C36.2904 9.89333 36.3904 9.78 36.4438 9.78C36.5104 9.78 36.5571 9.94667 36.5838 10.28C36.6238 10.6133 36.6438 11.06 36.6438 11.62C36.6438 12.1667 36.5104 12.76 36.2438 13.4C35.9904 14.0267 35.6171 14.5333 35.1238 14.92C34.8438 15.1333 34.5838 15.24 34.3438 15.24C34.1171 15.24 33.9238 15.1867 33.7638 15.08C33.6171 14.9867 33.4838 14.8267 33.3638 14.6C33.1638 14.28 32.9638 13.8667 32.7638 13.36C32.5771 12.8533 32.4838 12.3067 32.4838 11.72C32.4838 11.1333 32.5304 10.54 32.6238 9.94C32.7171 9.34 32.7638 8.94 32.7638 8.74C32.7638 8.52667 32.6571 8.26 32.4438 7.94C32.2304 7.60667 32.1238 7.40667 32.1238 7.34C32.1238 7.27333 32.1438 7.20667 32.1838 7.14C32.2371 7.06 32.2971 6.98667 32.3638 6.92C32.4438 6.84 32.5171 6.77333 32.5838 6.72C32.6638 6.66667 32.7504 6.6 32.8438 6.52C33.1504 6.26667 33.4304 6.14 33.6838 6.14C33.9371 6.14 34.1571 6.22667 34.3438 6.4C34.5438 6.57333 34.6371 6.87333 34.6238 7.3C34.6238 7.72667 34.5238 8.53333 34.3238 9.72C34.0704 11.24 33.9438 12.1133 33.9438 12.34C33.9438 12.5667 34.0038 12.68 34.1238 12.68C34.3904 12.68 35.0638 11.8267 36.1438 10.12ZM41.1284 6C41.4751 6 41.8884 6.14 42.3684 6.42C42.8484 6.68667 43.0884 7.00667 43.0884 7.38C43.0884 7.74 42.9418 8.06667 42.6484 8.36C42.3684 8.65333 42.0484 8.8 41.6884 8.8C41.1418 8.8 40.7618 8.54667 40.5484 8.04C40.5218 7.96 40.4751 7.92 40.4084 7.92C40.3551 7.92 40.1351 8 39.7484 8.16C39.3751 8.32 39.1218 8.43333 38.9884 8.5C38.8551 8.56667 38.7884 8.63333 38.7884 8.7C38.7884 8.75333 38.8818 8.82667 39.0684 8.92C41.4418 9.56 42.6284 10.54 42.6284 11.86C42.6284 12.3267 42.4418 12.8133 42.0684 13.32C41.7084 13.8133 41.1951 14.22 40.5284 14.54C39.8618 14.86 39.2218 15.02 38.6084 15.02C37.9951 15.02 37.5618 14.8533 37.3084 14.52C37.0684 14.1867 36.9484 13.7067 36.9484 13.08C36.9484 12.4533 37.1684 11.9867 37.6084 11.68C38.1951 11.2933 38.6751 11.1 39.0484 11.1C39.1418 11.1 39.1884 11.1267 39.1884 11.18C39.1884 11.22 39.0818 11.3 38.8684 11.42C38.6684 11.54 38.4484 11.7133 38.2084 11.94C37.9818 12.1667 37.8684 12.3533 37.8684 12.5C37.8684 12.6333 38.0284 12.7 38.3484 12.7C39.2018 12.7 40.0418 12.46 40.8684 11.98C41.0551 11.8867 41.1484 11.78 41.1484 11.66C41.1484 11.5267 41.0084 11.3933 40.7284 11.26C40.4484 11.1267 39.9751 10.9333 39.3084 10.68C38.6551 10.4267 38.1351 10.2133 37.7484 10.04C37.3751 9.85333 37.1884 9.55333 37.1884 9.14C37.1884 9.02 37.2151 8.85333 37.2684 8.64C37.3351 8.41333 37.3751 8.26 37.3884 8.18C37.4551 7.71333 37.6618 7.39333 38.0084 7.22C38.3684 7.04667 39.1351 6.68667 40.3084 6.14C40.5084 6.04667 40.7818 6 41.1284 6ZM48.0367 10.14L48.0567 9.8C48.0567 9.45333 47.9501 9.16667 47.7367 8.94C47.5367 8.7 47.4367 8.54667 47.4367 8.48C47.4367 8.41333 47.4767 8.36 47.5567 8.32C47.6501 8.28 47.7501 8.25333 47.8567 8.24C47.9634 8.21333 48.0701 8.13333 48.1767 8C48.2834 7.85333 48.3701 7.55333 48.4367 7.1C48.5034 6.64667 48.5367 6.32667 48.5367 6.14C48.5367 5.94 48.5967 5.84 48.7167 5.84C48.8367 5.84 48.9434 5.88 49.0367 5.96C49.1301 6.04 49.1967 6.12 49.2367 6.2C49.2901 6.26667 49.3501 6.37333 49.4167 6.52C49.4834 6.66667 49.5301 6.76 49.5567 6.8C49.9967 6.65333 50.3634 6.58 50.6567 6.58C51.4167 6.58 52.0701 6.95333 52.6167 7.7C53.1767 8.43333 53.4567 9.18667 53.4567 9.96C53.4567 10.24 53.4234 10.56 53.3567 10.92C52.9434 12.7067 52.3034 13.9333 51.4367 14.6C51.1434 14.84 50.8767 14.96 50.6367 14.96C50.3967 14.96 50.1967 14.8667 50.0367 14.68C49.8767 14.48 49.7634 14.2267 49.6967 13.92C49.5767 13.3733 49.5167 12.74 49.5167 12.02C49.5167 11.3 49.5967 10.94 49.7567 10.94C49.7834 10.94 49.8501 11.1133 49.9567 11.46C50.0767 11.8067 50.2567 11.98 50.4967 11.98C50.7367 11.98 50.9167 11.86 51.0367 11.62C51.2501 11.2467 51.4567 10.78 51.6567 10.22C51.8567 9.64667 51.9567 9.20667 51.9567 8.9C51.9567 8.58 51.8101 8.42 51.5167 8.42C51.3434 8.42 51.1501 8.46667 50.9367 8.56C50.1101 8.89333 49.5634 9.64667 49.2967 10.82C48.8301 12.9 48.5967 14.7133 48.5967 16.26C48.5967 16.9933 48.6367 17.6 48.7167 18.08L48.7767 18.54C48.7767 18.7 48.7101 18.8533 48.5767 19C48.4434 19.1467 48.2967 19.22 48.1367 19.22C47.7101 19.22 47.4967 18.22 47.4967 16.22C47.4967 14.9667 47.6767 12.94 48.0367 10.14ZM60.1378 10.5C60.2311 10.5 60.2778 10.78 60.2778 11.34C60.2778 11.8867 60.0911 12.44 59.7178 13C59.5578 13.32 59.2978 13.6933 58.9378 14.12C58.5911 14.5333 58.3578 14.7867 58.2378 14.88C57.8778 15.1333 57.5845 15.26 57.3578 15.26C57.1445 15.26 56.9845 15.2467 56.8778 15.22C56.7711 15.1933 56.6645 15.1333 56.5578 15.04C56.4645 14.96 56.3845 14.9 56.3178 14.86C56.2645 14.8067 56.1911 14.7133 56.0978 14.58C56.0178 14.4333 55.9645 14.34 55.9378 14.3C55.9111 14.26 55.8511 14.1533 55.7578 13.98C55.6645 13.8067 55.6178 13.7133 55.6178 13.7C55.3645 13.2333 55.2378 12.7933 55.2378 12.38C55.2378 11.9533 55.2711 11.56 55.3378 11.2C55.4178 10.8267 55.5378 10.3733 55.6978 9.84C55.8578 9.30667 55.9578 8.96667 55.9978 8.82C55.7978 9.07333 55.5311 9.34667 55.1978 9.64C55.0645 9.74667 54.9178 9.8 54.7578 9.8C54.6111 9.8 54.4845 9.73333 54.3778 9.6C54.2845 9.45333 54.1578 9.14667 53.9978 8.68C53.8378 8.21333 53.7578 7.9 53.7578 7.74C53.7578 7.56667 53.8645 7.30667 54.0778 6.96C54.2911 6.6 54.4178 6.36 54.4578 6.24C54.5245 6 54.6245 5.88 54.7578 5.88C54.8245 5.88 54.9845 5.95333 55.2378 6.1C55.4911 6.23333 55.6578 6.5 55.7378 6.9C55.7645 7.06 55.8245 7.14 55.9178 7.14C55.9578 7.14 56.0711 7.06667 56.2578 6.92C56.4578 6.77333 56.6711 6.7 56.8978 6.7C57.1378 6.7 57.4911 6.91333 57.9578 7.34C58.1178 7.5 58.1978 7.72667 58.1978 8.02C58.1978 8.31333 58.1778 8.52 58.1378 8.64C58.1111 8.76 58.0778 8.84 58.0378 8.88C57.9178 8.97333 57.8245 9.10667 57.7578 9.28C57.7045 9.44 57.5245 10.0667 57.2178 11.16C56.9245 12.24 56.7778 12.8333 56.7778 12.94C56.7778 13.0467 56.8178 13.1 56.8978 13.1C57.0045 13.1 57.4311 12.78 58.1778 12.14C58.9245 11.5 59.4645 11.0267 59.7978 10.72C59.9978 10.5733 60.1111 10.5 60.1378 10.5ZM65.0306 10.28C65.0306 11.8933 64.564 13.3267 63.6306 14.58C63.2973 15.0067 62.924 15.22 62.5106 15.22C62.1106 15.22 61.7906 15.12 61.5506 14.92C60.684 14.2 60.2506 12.9667 60.2506 11.22C60.2506 10.0067 60.5773 8.46 61.2306 6.58C61.284 6.44667 61.3306 6.36667 61.3706 6.34C61.4106 6.3 61.4773 6.28 61.5706 6.28C61.6773 6.28 61.804 6.21333 61.9506 6.08C62.0973 5.93333 62.3373 5.86 62.6706 5.86C63.0173 5.86 63.364 5.98667 63.7106 6.24C64.0573 6.49333 64.3106 6.83333 64.4706 7.26C64.844 8.26 65.0306 9.26667 65.0306 10.28ZM63.3706 8.98C63.3706 7.75333 63.2173 7.14 62.9106 7.14C62.764 7.14 62.6306 7.25333 62.5106 7.48C61.9773 8.74667 61.7106 10.26 61.7106 12.02C61.7106 12.46 61.7173 12.7933 61.7306 13.02C62.824 12.18 63.3706 10.8333 63.3706 8.98ZM73.0384 12.16L73.0984 13.2C73.0984 13.9333 72.9051 14.3 72.5184 14.3C72.2118 14.3 71.9451 14.14 71.7184 13.82C71.4918 13.5 71.3184 13.2133 71.1984 12.96C71.0784 12.6933 70.9584 12.4467 70.8384 12.22C70.7184 11.98 70.6118 11.7 70.5184 11.38C70.5051 11.42 70.4651 11.56 70.3984 11.8L70.2384 12.34C70.0784 12.9267 69.9518 13.32 69.8584 13.52C69.7784 13.7067 69.6851 13.92 69.5784 14.16C69.4851 14.3867 69.3851 14.5733 69.2784 14.72C69.1718 14.8533 69.0584 14.9867 68.9384 15.12C68.6984 15.4 68.4051 15.54 68.0584 15.54C67.7251 15.54 67.3984 15.3467 67.0784 14.96C66.5318 14.32 66.1318 13.52 65.8784 12.56C65.7584 12.16 65.6984 11.7 65.6984 11.18C65.6984 10.66 65.8584 10.0867 66.1784 9.46C66.4984 8.82 66.9784 8.12 67.6184 7.36C68.2584 6.6 68.8518 6.22 69.3984 6.22C69.6918 6.22 70.0251 6.36 70.3984 6.64C70.4784 5.92 70.6118 4.9 70.7984 3.58C70.9851 2.26 71.0984 1.4 71.1384 0.999999C71.1784 0.586666 71.3184 0.38 71.5584 0.38C71.8118 0.38 71.9918 0.513333 72.0984 0.779999C72.2184 1.03333 72.2784 1.28667 72.2784 1.54C72.2784 1.79333 72.2584 2.02667 72.2184 2.24C71.8451 6.05333 71.6584 9.15333 71.6584 11.54C71.6584 11.9 71.7584 12.08 71.9584 12.08C72.1584 12.08 72.3718 11.9267 72.5984 11.62C72.8384 11.3 72.9918 11.14 73.0584 11.14C73.1384 11.14 73.1784 11.1933 73.1784 11.3L73.0384 12.16ZM69.8784 8.34C69.8784 8.18 69.7984 8.1 69.6384 8.1C69.4918 8.1 69.3118 8.16667 69.0984 8.3C68.4051 8.68667 67.8318 9.28667 67.3784 10.1C66.9384 10.9133 66.7184 11.7267 66.7184 12.54C66.7184 13.0333 66.8718 13.28 67.1784 13.28C67.2984 13.28 67.4318 13.2067 67.5784 13.06C68.3251 12.2733 69.0651 10.82 69.7984 8.7C69.8518 8.56667 69.8784 8.44667 69.8784 8.34ZM73.9142 5.9L74.8742 5.72C75.1809 5.72 75.4676 5.83333 75.7342 6.06C75.7609 6.08667 75.8409 6.15333 75.9742 6.26C76.1209 6.36667 76.2342 6.45333 76.3142 6.52C76.5276 6.72 76.6342 6.89333 76.6342 7.04C76.6342 7.17333 76.5142 7.57333 76.2742 8.24C76.0342 8.90667 75.7809 9.61333 75.5142 10.36C75.1676 11.28 74.9942 11.7867 74.9942 11.88C74.9942 11.9733 75.0276 12.02 75.0942 12.02C75.2009 12.02 75.6009 11.3867 76.2942 10.12C76.9876 8.85333 77.5142 7.86 77.8742 7.14C78.0076 6.88667 78.1942 6.76 78.4342 6.76C78.9942 6.76 79.2742 6.99333 79.2742 7.46C79.2742 7.72667 79.1009 8.48 78.7542 9.72C78.3142 11.36 78.0942 12.2533 78.0942 12.4C78.0942 12.5333 78.1276 12.6 78.1942 12.6C78.2742 12.6 78.4276 12.2533 78.6542 11.56C78.8809 10.8533 79.0409 10.5 79.1342 10.5C79.1876 10.5 79.2542 10.56 79.3342 10.68C79.6676 11.3733 79.8342 12.0133 79.8342 12.6C79.8342 13.1867 79.6276 13.86 79.2142 14.62C79.0276 14.98 78.7676 15.16 78.4342 15.16C78.2209 15.16 78.0676 15.1067 77.9742 15C77.7076 14.6933 77.5476 14.4867 77.4942 14.38C77.2409 14.06 77.0342 13.4867 76.8742 12.66C76.7809 12.8333 76.6609 13.08 76.5142 13.4C76.2076 14.1067 75.9276 14.62 75.6742 14.94C75.5142 15.1667 75.3076 15.28 75.0542 15.28C74.8142 15.28 74.5476 15.1067 74.2542 14.76C73.8142 14.16 73.5876 13.4867 73.5742 12.74C73.5742 11.9933 73.6476 11.2933 73.7942 10.64C73.9542 9.98667 74.1942 9.19333 74.5142 8.26L74.5742 8.02C74.5742 7.91333 74.5276 7.86 74.4342 7.86L73.9742 7.98C73.7476 7.98 73.5876 7.84667 73.4942 7.58C73.2809 7.1 73.1742 6.58 73.1742 6.02C73.1742 5.86 73.2409 5.78 73.3742 5.78L73.9142 5.9ZM85.212 11.76C85.212 12.6133 84.9387 13.44 84.392 14.24C83.8454 15.04 83.152 15.44 82.312 15.44C81.6454 15.44 81.112 15.04 80.712 14.24C80.3254 13.4267 80.132 12.5733 80.132 11.68C80.132 10.7733 80.372 9.78667 80.852 8.72C81.3454 7.65333 81.9854 6.8 82.772 6.16C82.9454 6 83.1654 5.92 83.432 5.92C83.6987 5.92 84.012 6.07333 84.372 6.38C84.5587 6.55333 84.652 6.91333 84.652 7.46C84.652 8.00667 84.492 8.86 84.172 10.02C84.092 10.3133 83.9854 10.46 83.852 10.46C83.5987 10.46 83.4054 9.74667 83.272 8.32C83.2587 8.09333 83.2454 7.95333 83.232 7.9C82.5787 8.62 82.0654 9.44 81.692 10.36C81.332 11.2667 81.152 12.1467 81.152 13C81.152 13.44 81.2987 13.66 81.592 13.66C82.0987 13.66 82.8987 13.2067 83.992 12.3C84.192 12.1267 84.3387 12 84.432 11.92C84.5254 11.8267 84.6654 11.7 84.852 11.54C85.0387 11.3667 85.1454 11.2667 85.172 11.24C85.1987 11.36 85.212 11.5333 85.212 11.76ZM88.8542 6.2L90.4342 6.12C90.8476 6.12 91.0542 6.38667 91.0542 6.92C91.0542 7.18667 90.9676 7.38667 90.7942 7.52C90.3676 7.90667 89.6342 8.17333 88.5942 8.32C88.4609 9.58667 88.3942 10.64 88.3942 11.48C88.3942 12.32 88.4542 12.74 88.5742 12.74C88.6542 12.74 88.9342 12.5267 89.4142 12.1C89.8942 11.6733 90.1609 11.46 90.2142 11.46C90.4409 11.46 90.5542 11.8067 90.5542 12.5C90.5542 13.18 90.4276 13.8533 90.1742 14.52C89.9209 15.1867 89.5609 15.52 89.0942 15.52C88.8942 15.52 88.6942 15.4467 88.4942 15.3C88.2942 15.1667 88.1409 15.0333 88.0342 14.9C87.9409 14.7533 87.8009 14.54 87.6142 14.26C87.4409 13.98 87.3342 13.8133 87.2942 13.76C86.9342 13.2667 86.7342 12.78 86.6942 12.3C86.6676 11.8067 86.6542 11.2333 86.6542 10.58C86.6542 9.92667 86.6942 9.22 86.7742 8.46C86.3609 8.44667 86.0142 8.3 85.7342 8.02C85.4676 7.74 85.2609 7.40667 85.1142 7.02C84.9542 6.62 84.8742 6.39333 84.8742 6.34C84.8742 6.16667 84.9742 6.08 85.1742 6.08L87.0942 6.2C87.1609 5.78667 87.2676 5.21333 87.4142 4.48C87.6409 3.41333 87.7542 2.79333 87.7542 2.62L87.7142 2.24C87.7142 2.02667 87.8342 1.92 88.0742 1.92C88.3142 1.92 88.6076 2.04 88.9542 2.28C89.3009 2.52 89.4742 2.74667 89.4742 2.96C89.4742 3.05333 89.4276 3.24 89.3342 3.52C89.2142 3.94667 89.0542 4.84 88.8542 6.2ZM95.4253 6C95.772 6 96.1853 6.14 96.6653 6.42C97.1453 6.68667 97.3853 7.00667 97.3853 7.38C97.3853 7.74 97.2386 8.06667 96.9453 8.36C96.6653 8.65333 96.3453 8.8 95.9853 8.8C95.4386 8.8 95.0586 8.54667 94.8453 8.04C94.8186 7.96 94.772 7.92 94.7053 7.92C94.652 7.92 94.432 8 94.0453 8.16C93.672 8.32 93.4186 8.43333 93.2853 8.5C93.152 8.56667 93.0853 8.63333 93.0853 8.7C93.0853 8.75333 93.1786 8.82667 93.3653 8.92C95.7386 9.56 96.9253 10.54 96.9253 11.86C96.9253 12.3267 96.7386 12.8133 96.3653 13.32C96.0053 13.8133 95.492 14.22 94.8253 14.54C94.1586 14.86 93.5186 15.02 92.9053 15.02C92.292 15.02 91.8586 14.8533 91.6053 14.52C91.3653 14.1867 91.2453 13.7067 91.2453 13.08C91.2453 12.4533 91.4653 11.9867 91.9053 11.68C92.492 11.2933 92.972 11.1 93.3453 11.1C93.4386 11.1 93.4853 11.1267 93.4853 11.18C93.4853 11.22 93.3786 11.3 93.1653 11.42C92.9653 11.54 92.7453 11.7133 92.5053 11.94C92.2786 12.1667 92.1653 12.3533 92.1653 12.5C92.1653 12.6333 92.3253 12.7 92.6453 12.7C93.4986 12.7 94.3386 12.46 95.1653 11.98C95.352 11.8867 95.4453 11.78 95.4453 11.66C95.4453 11.5267 95.3053 11.3933 95.0253 11.26C94.7453 11.1267 94.272 10.9333 93.6053 10.68C92.952 10.4267 92.432 10.2133 92.0453 10.04C91.672 9.85333 91.4853 9.55333 91.4853 9.14C91.4853 9.02 91.512 8.85333 91.5653 8.64C91.632 8.41333 91.672 8.26 91.6853 8.18C91.752 7.71333 91.9586 7.39333 92.3053 7.22C92.6653 7.04667 93.432 6.68667 94.6053 6.14C94.8053 6.04667 95.0786 6 95.4253 6Z" fill="#6F764D"/>
</svg>
