<svg width="58" height="23" viewBox="0 0 58 23" fill="none" xmlns="http://www.w3.org/2000/svg">
<path d="M4.14 2.32C4.14 1.86667 4.04667 1.64 3.86 1.64C3.67333 1.64 3.48 1.78 3.28 2.06C3.09333 2.34 3 2.53333 3 2.64C3 2.74667 3.03333 2.94667 3.1 3.24C3.16667 3.53333 3.2 3.84 3.2 4.16C3.2 4.46667 3.08667 5.12 2.86 6.12C2.63333 7.10667 2.44667 7.76667 2.3 8.1C2.16667 8.42 2.00667 8.58 1.82 8.58C1.67333 8.58 1.54 8.52 1.42 8.4C1.31333 8.26667 1.18 8.07333 1.02 7.82C0.873333 7.56667 0.733333 7.35333 0.6 7.18C0.466667 6.99333 0.4 6.78667 0.4 6.56C0.4 6.33333 0.606667 5.76 1.02 4.84C1.43333 3.90667 1.78 3.16667 2.06 2.62C1.87333 2.39333 1.78 2.24 1.78 2.16C1.78 2 1.89333 1.92 2.12 1.92C2.18667 1.92 2.27333 1.94667 2.38 2C2.40667 1.96 2.46667 1.85333 2.56 1.68C2.65333 1.49333 2.72 1.36667 2.76 1.3C2.8 1.23333 2.86667 1.13333 2.96 0.999999C3.06667 0.853333 3.16 0.746666 3.24 0.68C3.49333 0.519999 3.73333 0.439999 3.96 0.439999C4.96 0.439999 5.45333 1.89333 5.44 4.8C5.44 4.88 5.44 4.94 5.44 4.98C5.44 8.06 5.08 11.5867 4.36 15.56C4.29333 15.8533 4.14667 16 3.92 16C3.66667 16 3.37333 15.84 3.04 15.52C2.70667 15.2 2.45333 14.9533 2.28 14.78C1.81333 14.3133 1.5 13.9733 1.34 13.76C1.14 13.5333 1.04 13.32 1.04 13.12C1.04 12.92 1.11333 12.6733 1.26 12.38C1.42 12.0733 1.58667 11.92 1.76 11.92C1.93333 11.92 2.1 12.06 2.26 12.34C2.43333 12.62 2.57333 12.76 2.68 12.76C2.78667 12.76 2.85333 12.66 2.88 12.46C2.92 12.2467 2.96 11.9533 3 11.58C3.10667 10.7933 3.32 9.4 3.64 7.4C3.97333 5.4 4.14 3.91333 4.14 2.94V2.32ZM12.8794 10.56C12.8794 11.2133 12.846 11.78 12.7794 12.26C12.7127 12.74 12.4727 13.3867 12.0594 14.2C11.646 15 11.2394 15.4 10.8394 15.4C10.666 15.4 10.4994 15.3067 10.3394 15.12C9.55271 14.1733 9.15938 13.2733 9.15938 12.42C9.15938 12.1667 9.24604 11.5867 9.41938 10.68C9.65938 9.32 9.77938 8.56667 9.77938 8.42C9.77938 8.26 9.75271 8.18 9.69938 8.18C9.65938 8.18 9.61271 8.23333 9.55938 8.34C9.21271 8.95333 8.93271 9.65333 8.71938 10.44C8.50604 11.2133 8.36604 11.8667 8.29938 12.4C8.23271 12.9333 8.15938 13.68 8.07938 14.64C8.07938 14.9733 7.99271 15.14 7.81938 15.14C7.73938 15.14 7.60604 15.0667 7.41938 14.92C6.69938 14.3067 6.33938 13.4667 6.33938 12.4C6.33938 11.9467 6.37938 11.32 6.45938 10.52C6.55271 9.72 6.60604 9.16667 6.61938 8.86C6.76604 7.00667 6.94604 6.08 7.15938 6.08C7.27938 6.08 7.36604 6.21333 7.41938 6.48C7.47271 6.73333 7.49938 7.02667 7.49938 7.36C7.49938 7.68 7.50604 7.97333 7.51938 8.24C7.54604 8.50667 7.59938 8.64 7.67938 8.64C7.75938 8.64 7.87271 8.42667 8.01938 8C8.16604 7.57333 8.37938 7.14667 8.65938 6.72C8.95271 6.28 9.26604 6.06 9.59938 6.06C9.93271 6.06 10.226 6.13333 10.4794 6.28C11.0527 6.57333 11.3394 7.18667 11.3394 8.12C11.3394 8.44 11.2994 8.83333 11.2194 9.3C11.1394 9.76667 11.066 10.28 10.9994 10.84C10.946 11.3867 10.9194 11.7 10.9194 11.78C10.9194 11.8467 10.946 11.88 10.9994 11.88C11.106 11.88 11.3727 11.6133 11.7994 11.08C12.2394 10.5467 12.5394 10.28 12.6994 10.28C12.8194 10.28 12.8794 10.3733 12.8794 10.56ZM13.9911 6.3L13.9311 6.88C13.9311 7.09333 13.9911 7.2 14.1111 7.2C14.1644 7.2 14.2244 7.16667 14.2911 7.1C14.7578 6.63333 15.2578 5.79333 15.7911 4.58C16.3244 3.36667 16.8644 2.25333 17.4111 1.24C17.5578 0.933333 17.7578 0.779999 18.0111 0.779999C18.2644 0.779999 18.4578 0.873333 18.5911 1.06C18.7378 1.24667 18.8111 1.46 18.8111 1.7C18.8111 1.92667 18.7444 2.12667 18.6111 2.3C17.7978 3.52667 16.9578 5.54 16.0911 8.34C16.6644 8.12667 17.2711 7.72667 17.9111 7.14C18.1644 6.92667 18.4378 6.82 18.7311 6.82C19.0378 6.82 19.3911 6.94667 19.7911 7.2C20.2044 7.44 20.4111 7.71333 20.4111 8.02C20.4111 8.31333 20.1444 8.64667 19.6111 9.02C19.0911 9.39333 18.5911 9.69333 18.1111 9.92C18.6844 10.68 19.0978 11.4067 19.3511 12.1C19.6178 12.7933 19.7511 13.58 19.7511 14.46C19.7511 16.78 18.8444 19.3133 17.0311 22.06C16.8444 22.3267 16.6311 22.5 16.3911 22.58C16.1644 22.66 15.8911 22.7 15.5711 22.7C15.2644 22.7 15.0511 22.66 14.9311 22.58C14.8244 22.5 14.7178 22.38 14.6111 22.22C14.5178 22.06 14.3711 21.8333 14.1711 21.54C13.9844 21.2467 13.8444 21.0133 13.7511 20.84C13.2978 19.9467 13.0711 18.8533 13.0711 17.56C13.0711 16.4667 13.1378 15.4 13.2711 14.36C13.4578 13.0533 13.6578 11.6867 13.8711 10.26C13.6711 10.02 13.5711 9.77333 13.5711 9.52C13.5711 9.25333 13.6778 9.04667 13.8911 8.9C13.5711 8.18 13.3844 7.71333 13.3311 7.5C13.2911 7.27333 13.2711 7.05333 13.2711 6.84C13.2711 6.12 13.3978 5.76 13.6511 5.76C13.7444 5.76 13.8244 5.82667 13.8911 5.96C13.9578 6.08 13.9911 6.19333 13.9911 6.3ZM15.4711 20.68C16.2711 19.8267 16.9244 18.68 17.4311 17.24C17.9511 15.8 18.2111 14.44 18.2111 13.16C18.2111 11.8667 17.7111 10.96 16.7111 10.44C16.2844 10.5467 15.8644 10.6267 15.4511 10.68C14.8511 13.2933 14.5511 16.2267 14.5511 19.48C14.5511 20.4667 14.7178 20.96 15.0511 20.96C15.1711 20.96 15.3111 20.8667 15.4711 20.68ZM21.8511 0.899999L21.7511 0.3C21.7511 0.139999 21.8378 0.0599992 22.0111 0.0599992C22.0778 0.0599992 22.1644 0.0733324 22.2711 0.0999987C23.0711 0.259999 23.4711 0.719999 23.4711 1.48C23.4711 1.66667 23.4511 1.87333 23.4111 2.1C23.3711 2.31333 23.2911 2.76667 23.1711 3.46C23.0644 4.15333 22.9911 4.65333 22.9511 4.96L22.7311 6.34C22.4111 8.44667 22.2511 10.3867 22.2511 12.16C22.2511 12.5467 22.3444 12.74 22.5311 12.74C22.5978 12.74 22.6711 12.7 22.7511 12.62C23.6844 11.4467 24.2244 10.7333 24.3711 10.48C24.5311 10.2133 24.6444 10.08 24.7111 10.08C24.7911 10.08 24.8311 10.1733 24.8311 10.36C24.8311 10.5333 24.7911 10.8733 24.7111 11.38C24.6444 11.8733 24.6044 12.1933 24.5911 12.34C24.5778 12.4733 24.5444 12.6267 24.4911 12.8C24.4511 12.9733 24.4111 13.1133 24.3711 13.22C24.3444 13.3133 24.2778 13.4533 24.1711 13.64C24.0644 13.8133 23.9911 13.9267 23.9511 13.98C23.6711 14.3533 23.4444 14.6467 23.2711 14.86C23.1111 15.06 22.9178 15.16 22.6911 15.16C22.4778 15.16 22.2711 15.06 22.0711 14.86C21.8711 14.66 21.7244 14.48 21.6311 14.32C21.5511 14.16 21.4311 13.9133 21.2711 13.58C20.8044 12.6733 20.5711 11.72 20.5711 10.72C20.5711 9.86667 20.6644 8.82 20.8511 7.58C21.0511 6.34 21.1711 5.56667 21.2111 5.26C20.9044 5.26 20.7511 5.12667 20.7511 4.86C20.7511 4.75333 20.7644 4.65333 20.7911 4.56C20.8311 4.45333 20.9644 4.08 21.1911 3.44C21.6311 2.14667 21.8511 1.3 21.8511 0.899999ZM25.6642 5.9L26.6242 5.72C26.9309 5.72 27.2176 5.83333 27.4842 6.06C27.5109 6.08667 27.5909 6.15333 27.7242 6.26C27.8709 6.36667 27.9842 6.45333 28.0642 6.52C28.2776 6.72 28.3842 6.89333 28.3842 7.04C28.3842 7.17333 28.2642 7.57333 28.0242 8.24C27.7842 8.90667 27.5309 9.61333 27.2642 10.36C26.9176 11.28 26.7442 11.7867 26.7442 11.88C26.7442 11.9733 26.7776 12.02 26.8442 12.02C26.9509 12.02 27.3509 11.3867 28.0442 10.12C28.7376 8.85333 29.2642 7.86 29.6242 7.14C29.7576 6.88667 29.9442 6.76 30.1842 6.76C30.7442 6.76 31.0242 6.99333 31.0242 7.46C31.0242 7.72667 30.8509 8.48 30.5042 9.72C30.0642 11.36 29.8442 12.2533 29.8442 12.4C29.8442 12.5333 29.8776 12.6 29.9442 12.6C30.0242 12.6 30.1776 12.2533 30.4042 11.56C30.6309 10.8533 30.7909 10.5 30.8842 10.5C30.9376 10.5 31.0042 10.56 31.0842 10.68C31.4176 11.3733 31.5842 12.0133 31.5842 12.6C31.5842 13.1867 31.3776 13.86 30.9642 14.62C30.7776 14.98 30.5176 15.16 30.1842 15.16C29.9709 15.16 29.8176 15.1067 29.7242 15C29.4576 14.6933 29.2976 14.4867 29.2442 14.38C28.9909 14.06 28.7842 13.4867 28.6242 12.66C28.5309 12.8333 28.4109 13.08 28.2642 13.4C27.9576 14.1067 27.6776 14.62 27.4242 14.94C27.2642 15.1667 27.0576 15.28 26.8042 15.28C26.5642 15.28 26.2976 15.1067 26.0042 14.76C25.5642 14.16 25.3376 13.4867 25.3242 12.74C25.3242 11.9933 25.3976 11.2933 25.5442 10.64C25.7042 9.98667 25.9442 9.19333 26.2642 8.26L26.3242 8.02C26.3242 7.91333 26.2776 7.86 26.1842 7.86L25.7242 7.98C25.4976 7.98 25.3376 7.84667 25.2442 7.58C25.0309 7.1 24.9242 6.58 24.9242 6.02C24.9242 5.86 24.9909 5.78 25.1242 5.78L25.6642 5.9ZM38.602 10.56C38.602 11.2133 38.5687 11.78 38.502 12.26C38.4354 12.74 38.1954 13.3867 37.782 14.2C37.3687 15 36.962 15.4 36.562 15.4C36.3887 15.4 36.222 15.3067 36.062 15.12C35.2754 14.1733 34.882 13.2733 34.882 12.42C34.882 12.1667 34.9687 11.5867 35.142 10.68C35.382 9.32 35.502 8.56667 35.502 8.42C35.502 8.26 35.4754 8.18 35.422 8.18C35.382 8.18 35.3354 8.23333 35.282 8.34C34.9354 8.95333 34.6554 9.65333 34.442 10.44C34.2287 11.2133 34.0887 11.8667 34.022 12.4C33.9554 12.9333 33.882 13.68 33.802 14.64C33.802 14.9733 33.7154 15.14 33.542 15.14C33.462 15.14 33.3287 15.0667 33.142 14.92C32.422 14.3067 32.062 13.4667 32.062 12.4C32.062 11.9467 32.102 11.32 32.182 10.52C32.2754 9.72 32.3287 9.16667 32.342 8.86C32.4887 7.00667 32.6687 6.08 32.882 6.08C33.002 6.08 33.0887 6.21333 33.142 6.48C33.1954 6.73333 33.222 7.02667 33.222 7.36C33.222 7.68 33.2287 7.97333 33.242 8.24C33.2687 8.50667 33.322 8.64 33.402 8.64C33.482 8.64 33.5954 8.42667 33.742 8C33.8887 7.57333 34.102 7.14667 34.382 6.72C34.6754 6.28 34.9887 6.06 35.322 6.06C35.6554 6.06 35.9487 6.13333 36.202 6.28C36.7754 6.57333 37.062 7.18667 37.062 8.12C37.062 8.44 37.022 8.83333 36.942 9.3C36.862 9.76667 36.7887 10.28 36.722 10.84C36.6687 11.3867 36.642 11.7 36.642 11.78C36.642 11.8467 36.6687 11.88 36.722 11.88C36.8287 11.88 37.0954 11.6133 37.522 11.08C37.962 10.5467 38.262 10.28 38.422 10.28C38.542 10.28 38.602 10.3733 38.602 10.56ZM43.9738 11.76C43.9738 12.6133 43.7004 13.44 43.1538 14.24C42.6071 15.04 41.9138 15.44 41.0738 15.44C40.4071 15.44 39.8738 15.04 39.4738 14.24C39.0871 13.4267 38.8938 12.5733 38.8938 11.68C38.8938 10.7733 39.1338 9.78667 39.6138 8.72C40.1071 7.65333 40.7471 6.8 41.5337 6.16C41.7071 6 41.9271 5.92 42.1938 5.92C42.4604 5.92 42.7738 6.07333 43.1338 6.38C43.3204 6.55333 43.4138 6.91333 43.4138 7.46C43.4138 8.00667 43.2538 8.86 42.9338 10.02C42.8538 10.3133 42.7471 10.46 42.6138 10.46C42.3604 10.46 42.1671 9.74667 42.0338 8.32C42.0204 8.09333 42.0071 7.95333 41.9938 7.9C41.3404 8.62 40.8271 9.44 40.4538 10.36C40.0938 11.2667 39.9137 12.1467 39.9137 13C39.9137 13.44 40.0604 13.66 40.3538 13.66C40.8604 13.66 41.6604 13.2067 42.7538 12.3C42.9538 12.1267 43.1004 12 43.1938 11.92C43.2871 11.8267 43.4271 11.7 43.6138 11.54C43.8004 11.3667 43.9071 11.2667 43.9338 11.24C43.9604 11.36 43.9738 11.5333 43.9738 11.76ZM50.4806 12.36C50.4806 14.3867 49.454 15.4 47.4006 15.4C46.5473 15.4 45.9206 15.18 45.5206 14.74C45.134 14.3 44.794 13.6267 44.5006 12.72C44.394 12.3733 44.3406 12.0067 44.3406 11.62C44.3406 11.22 44.514 10.6933 44.8606 10.04C45.2206 9.37333 45.614 8.79333 46.0406 8.3C46.094 7.56667 46.2606 7.2 46.5406 7.2C46.6873 7.2 46.7873 7.28667 46.8406 7.46C47.1206 7.20667 47.4606 6.96 47.8606 6.72C48.2606 6.48 48.6206 6.36 48.9406 6.36C49.2606 6.36 49.5873 6.54667 49.9206 6.92C50.2673 7.29333 50.4406 7.68 50.4406 8.08C50.4406 8.46667 50.1673 9 49.6206 9.68C48.594 10.96 47.7873 11.6 47.2006 11.6C46.774 11.6 46.4406 11.2467 46.2006 10.54C46.1873 10.5667 46.1206 10.68 46.0006 10.88C45.894 11.0667 45.814 11.2067 45.7606 11.3C45.7206 11.3933 45.6606 11.52 45.5806 11.68C45.4473 11.9867 45.3806 12.26 45.3806 12.5C45.3806 13.0467 45.654 13.32 46.2006 13.32C47.1073 13.32 47.874 13.1333 48.5006 12.76C49.1406 12.3733 49.774 11.7933 50.4006 11.02C50.454 11.6067 50.4806 12.0533 50.4806 12.36ZM47.2206 9.94C47.434 9.94 47.7473 9.68 48.1606 9.16C48.5873 8.64 48.8006 8.28667 48.8006 8.1C48.8006 7.9 48.7273 7.8 48.5806 7.8C48.4473 7.8 48.2073 7.97333 47.8606 8.32C47.5273 8.66667 47.2606 8.96667 47.0606 9.22C47.034 9.38 47.0206 9.5 47.0206 9.58C47.0206 9.82 47.0873 9.94 47.2206 9.94ZM57.2589 10.5C57.3522 10.5 57.3989 10.78 57.3989 11.34C57.3989 11.8867 57.2122 12.44 56.8389 13C56.6789 13.32 56.4189 13.6933 56.0589 14.12C55.7122 14.5333 55.4789 14.7867 55.3589 14.88C54.9989 15.1333 54.7056 15.26 54.4789 15.26C54.2656 15.26 54.1056 15.2467 53.9989 15.22C53.8922 15.1933 53.7856 15.1333 53.6789 15.04C53.5856 14.96 53.5056 14.9 53.4389 14.86C53.3856 14.8067 53.3122 14.7133 53.2189 14.58C53.1389 14.4333 53.0856 14.34 53.0589 14.3C53.0322 14.26 52.9722 14.1533 52.8789 13.98C52.7856 13.8067 52.7389 13.7133 52.7389 13.7C52.4856 13.2333 52.3589 12.7933 52.3589 12.38C52.3589 11.9533 52.3922 11.56 52.4589 11.2C52.5389 10.8267 52.6589 10.3733 52.8189 9.84C52.9789 9.30667 53.0789 8.96667 53.1189 8.82C52.9189 9.07333 52.6522 9.34667 52.3189 9.64C52.1856 9.74667 52.0389 9.8 51.8789 9.8C51.7322 9.8 51.6056 9.73333 51.4989 9.6C51.4056 9.45333 51.2789 9.14667 51.1189 8.68C50.9589 8.21333 50.8789 7.9 50.8789 7.74C50.8789 7.56667 50.9856 7.30667 51.1989 6.96C51.4122 6.6 51.5389 6.36 51.5789 6.24C51.6456 6 51.7456 5.88 51.8789 5.88C51.9456 5.88 52.1056 5.95333 52.3589 6.1C52.6122 6.23333 52.7789 6.5 52.8589 6.9C52.8856 7.06 52.9456 7.14 53.0389 7.14C53.0789 7.14 53.1922 7.06667 53.3789 6.92C53.5789 6.77333 53.7922 6.7 54.0189 6.7C54.2589 6.7 54.6122 6.91333 55.0789 7.34C55.2389 7.5 55.3189 7.72667 55.3189 8.02C55.3189 8.31333 55.2989 8.52 55.2589 8.64C55.2322 8.76 55.1989 8.84 55.1589 8.88C55.0389 8.97333 54.9456 9.10667 54.8789 9.28C54.8256 9.44 54.6456 10.0667 54.3389 11.16C54.0456 12.24 53.8989 12.8333 53.8989 12.94C53.8989 13.0467 53.9389 13.1 54.0189 13.1C54.1256 13.1 54.5522 12.78 55.2989 12.14C56.0456 11.5 56.5856 11.0267 56.9189 10.72C57.1189 10.5733 57.2322 10.5 57.2589 10.5Z" fill="#6F764D"/>
</svg>
